<?xml version="1.0" encoding="UTF-8"?>
<svg version="1.1" xmlns="http://www.w3.org/2000/svg" width="123" height="80">
<path d="M0 0 C4.3830163 0.44641833 6.19486024 3.06082325 9 6.25 C9.98001081 7.35066832 10.96049589 8.45091452 11.94140625 9.55078125 C12.44559082 10.12135254 12.94977539 10.69192383 13.46923828 11.27978516 C15.92047256 14.03439389 18.42986691 16.73431754 20.9375 19.4375 C21.94683248 20.5297466 22.95594589 21.62219568 23.96484375 22.71484375 C24.46612793 23.25737793 24.96741211 23.79991211 25.48388672 24.35888672 C28.48817668 27.61087337 31.49077099 30.86442612 34.49316406 34.11816406 C37.02870536 36.86569053 39.56571571 39.61183463 42.10546875 42.35546875 C48.12208454 48.85830444 54.09556984 55.39479152 60 62 C56.41272872 64.08351615 52.79305958 64.80141379 48.75 65.625 C47.48671875 65.88539062 46.2234375 66.14578125 44.921875 66.4140625 C43.95765625 66.60742188 42.9934375 66.80078125 42 67 C42.495 67.94875 42.99 68.8975 43.5 69.875 C45 73 45 73 45 75 C39.06 75.33 33.12 75.66 27 76 C27.33 77.32 27.66 78.64 28 80 C22.15868177 79.6096815 16.6369616 78.73024657 10.9375 77.375 C5.14149676 76.10361864 0.76645778 75.77982476 -5 77 C-6.92385657 77.38356639 -8.84772149 77.76709137 -10.77172852 78.14990234 C-12.73207191 78.54623927 -14.68842459 78.96216181 -16.64453125 79.37890625 C-20 80 -20 80 -24 80 C-23.67 78.35 -23.34 76.7 -23 75 C-29.27 75 -35.54 75 -42 75 C-41.01 72.36 -40.02 69.72 -39 67 C-44.61 65.68 -50.22 64.36 -56 63 C-54.41054709 59.82109419 -53.45655806 58.19290411 -51.12890625 55.75 C-50.56026855 55.14784668 -49.99163086 54.54569336 -49.40576172 53.92529297 C-48.79748535 53.28994629 -48.18920898 52.65459961 -47.5625 52 C-46.28470201 50.64886694 -45.00736327 49.29729942 -43.73046875 47.9453125 C-43.0967334 47.27661133 -42.46299805 46.60791016 -41.81005859 45.91894531 C-39.30406592 43.26220099 -36.83798546 40.57169941 -34.375 37.875 C-30.61403088 33.76161211 -26.84404279 29.65698119 -23.0625 25.5625 C-22.56854736 25.02729736 -22.07459473 24.49209473 -21.56567383 23.94067383 C-18.96456952 21.12326849 -16.35968025 18.30946438 -13.75 15.5 C-12.94937134 14.63652954 -12.94937134 14.63652954 -12.13256836 13.75561523 C-11.12160918 12.66542679 -10.10949217 11.57631031 -9.09594727 10.48852539 C-5.94239446 7.08501256 -2.94471214 3.58602876 0 0 Z M1 7 C-1.48244531 14.63916985 -3.96017401 22.27984624 -6.43187714 29.92249775 C-7.57970557 33.47114383 -8.72915843 37.01924651 -9.88232422 40.56616211 C-10.99489538 43.98841938 -12.10319852 47.41203157 -13.20854187 50.83662987 C-13.63124013 52.14367133 -14.05548025 53.45021518 -14.48127747 54.75625038 C-15.07687043 56.58398313 -15.66650367 58.41365471 -16.25585938 60.2434082 C-16.59339233 61.28487503 -16.93092529 62.32634186 -17.27868652 63.39936829 C-18.13363544 66.03200896 -18.13363544 66.03200896 -18 69 C-3.78163809 72.89544162 6.83112099 73.16731735 21 69 C20.3498848 62.30721626 18.31265267 56.1728478 16.25390625 49.79296875 C15.69714455 48.05035515 15.69714455 48.05035515 15.12913513 46.27253723 C14.34596411 43.8267098 13.55993969 41.38179443 12.77124023 38.93774414 C11.5619752 35.18587176 10.36540424 31.43011177 9.16992188 27.67382812 C8.40700903 25.29663127 7.64336267 22.91966967 6.87890625 20.54296875 C6.34131432 18.85242622 6.34131432 18.85242622 5.79286194 17.12773132 C5.45588791 16.08937637 5.11891388 15.05102142 4.77172852 13.98120117 C4.47718277 13.06521652 4.18263702 12.14923187 3.87916565 11.20549011 C3.105253 8.84191415 3.105253 8.84191415 1 7 Z M-8 13 C-9.19096751 14.16312671 -10.37752704 15.33076672 -11.5625 16.5 C-12.22378906 17.1496875 -12.88507812 17.799375 -13.56640625 18.46875 C-16.19175832 21.19945327 -18.66278144 24.03537568 -21.14624023 26.89453125 C-24.10319507 30.25299016 -27.17632645 33.49865746 -30.25 36.75 C-34.93705767 41.73131242 -39.61797579 46.71740266 -44.25 51.75 C-45.10078125 52.67296875 -45.9515625 53.5959375 -46.828125 54.546875 C-48.67527962 56.6332295 -50.37360125 58.7399394 -52 61 C-48.29536335 62.36486614 -44.64001956 63.3172466 -40.7734375 64.0703125 C-39.87802246 64.24578613 -38.98260742 64.42125977 -38.06005859 64.60205078 C-37.38023926 64.73337402 -36.70041992 64.86469727 -36 65 C-35.58339111 64.26700684 -35.16678223 63.53401367 -34.73754883 62.77880859 C-33.12706251 59.94737358 -31.5151662 57.11675216 -29.90206909 54.2868042 C-29.17737878 53.0152318 -28.45303222 51.74346341 -27.72903442 50.47149658 C-23.88172625 43.71520079 -20.01075518 36.97803352 -16.0078125 30.3125 C-15.40348389 29.30525879 -14.79915527 28.29801758 -14.17651367 27.26025391 C-13.03265909 25.36244772 -11.88195645 23.46874931 -10.72387695 21.57958984 C-10.2155835 20.73605957 -9.70729004 19.8925293 -9.18359375 19.0234375 C-8.51154907 17.92394775 -8.51154907 17.92394775 -7.82592773 16.80224609 C-7.55337158 16.20750488 -7.28081543 15.61276367 -7 15 C-7.495 14.01 -7.495 14.01 -8 13 Z M7 14 C8.38181185 20.61790825 10.12851349 27.02032318 12.15234375 33.46875 C12.45314346 34.43026978 12.75394318 35.39178955 13.06385803 36.38244629 C13.69622695 38.39660302 14.3308148 40.41006433 14.9675293 42.42285156 C15.94235466 45.515401 16.89989799 48.61299414 17.85742188 51.7109375 C18.47550473 53.67220866 19.09460866 55.6331584 19.71484375 57.59375 C19.9993187 58.52280151 20.28379364 59.45185303 20.57688904 60.40905762 C20.85049759 61.26084595 21.12410614 62.11263428 21.40600586 62.99023438 C21.64202011 63.74252319 21.87803436 64.49481201 22.12120056 65.26989746 C22.93186465 67.36762807 22.93186465 67.36762807 26 68 C28.2683799 67.8012502 28.2683799 67.8012502 30.625 67.25 C31.42164062 67.09015625 32.21828125 66.9303125 33.0390625 66.765625 C33.68617187 66.51296875 34.33328125 66.2603125 35 66 C36.36611385 63.0330451 36.36611385 63.0330451 34.83520508 60.42236328 C33.93644653 58.88684814 33.93644653 58.88684814 33.01953125 57.3203125 C32.69506516 56.75921783 32.37059906 56.19812317 32.03630066 55.62002563 C30.97104666 53.78273025 29.89187008 51.95403172 28.8125 50.125 C28.07905305 48.86550523 27.34663672 47.60540975 26.61523438 46.34472656 C25.13289579 43.79195305 23.6457328 41.24209024 22.15478516 38.69433594 C19.06239759 33.40289043 16.03207828 28.07615573 13 22.75 C12.02115011 21.03627736 11.04201771 19.32271602 10.0625 17.609375 C9.375 16.40625 8.6875 15.203125 8 14 C7.67 14 7.34 14 7 14 Z M11 14 C12.2330105 18.01844342 13.68935768 21.48737342 15.8359375 25.09765625 C16.40038574 26.05478516 16.96483398 27.01191406 17.54638672 27.99804688 C18.45155029 29.51495117 18.45155029 29.51495117 19.375 31.0625 C20.63626404 33.19871867 21.8966629 35.33544837 23.15625 37.47265625 C24.11337891 39.09324951 24.11337891 39.09324951 25.08984375 40.74658203 C28.06081297 45.80679877 30.97107203 50.90109875 33.875 56 C34.39239746 56.90758057 34.90979492 57.81516113 35.44287109 58.75024414 C36.62955489 60.83294133 37.81494018 62.91637833 39 65 C43.95 64.01 48.9 63.02 54 62 C54.32814462 58.93978086 54.32814462 58.93978086 52.27734375 57.01953125 C51.50519531 56.29121094 50.73304687 55.56289063 49.9375 54.8125 C46.34435638 51.40362015 43.07367861 47.83462845 39.83618164 44.09448242 C36.89067229 40.73462007 33.81954982 37.49622036 30.75 34.25 C25.09061767 28.24723941 19.50085685 22.18974093 13.9765625 16.0625 C13.32429688 15.381875 12.67203125 14.70125 12 14 C11.67 14 11.34 14 11 14 Z M-5 15 C-5.35078613 15.60134766 -5.70157227 16.20269531 -6.06298828 16.82226562 C-7.13158758 18.65415015 -8.20037266 20.4859263 -9.26928711 22.31762695 C-10.51622611 24.45601005 -11.76181126 26.59518314 -13.00610352 28.73510742 C-16.33379864 34.45352509 -19.68313381 40.15574983 -23.08203125 45.83203125 C-24.05148682 47.46205078 -24.05148682 47.46205078 -25.04052734 49.125 C-26.2918061 51.2275348 -27.55108968 53.32532907 -28.81884766 55.41796875 C-29.38265137 56.36929688 -29.94645508 57.320625 -30.52734375 58.30078125 C-31.28132446 59.55628784 -31.28132446 59.55628784 -32.05053711 60.8371582 C-33.33634479 63.10911742 -33.33634479 63.10911742 -32 66 C-28.37 66.66 -24.74 67.32 -21 68 C-18.31211685 61.43944552 -15.87901348 54.87968895 -13.73046875 48.125 C-13.44520828 47.23385498 -13.15994781 46.34270996 -12.86604309 45.42456055 C-12.27177711 43.56312313 -11.67948279 41.70105517 -11.08911133 39.83837891 C-10.18014137 36.97683416 -9.25924131 34.1192978 -8.33789062 31.26171875 C-7.75968877 29.44554408 -7.18218876 27.62914577 -6.60546875 25.8125 C-6.32849655 24.95736816 -6.05152435 24.10223633 -5.76615906 23.22119141 C-4.14911699 19.08650057 -4.14911699 19.08650057 -5 15 Z M-35 67 C-35.99 68.98 -36.98 70.96 -38 73 C-32.72 73 -27.44 73 -22 73 C-22 72.01 -22 71.02 -22 70 C-26.29 69.01 -30.58 68.02 -35 67 Z M30.9375 68.5 C29.83277344 68.7784375 28.72804688 69.056875 27.58984375 69.34375 C26.73519531 69.5603125 25.88054687 69.776875 25 70 C25 70.99 25 71.98 25 73 C30.28 73 35.56 73 41 73 C39.515 70.03 39.515 70.03 38 67 C35.65592711 67 33.18575456 67.9320199 30.9375 68.5 Z M-19 71 C-19.33 71.66 -19.66 72.32 -20 73 C-16.7 73 -13.4 73 -10 73 C-10 72.67 -10 72.34 -10 72 C-12.97 71.67 -15.94 71.34 -19 71 Z M13 72 C13 72.33 13 72.66 13 73 C16.3 73 19.6 73 23 73 C22.67 72.34 22.34 71.68 22 71 C18.72724974 71 16.153368 71.29925156 13 72 Z M-21 75 C-21 75.66 -21 76.32 -21 77 C-16.545 76.505 -16.545 76.505 -12 76 C-12 75.67 -12 75.34 -12 75 C-14.97 75 -17.94 75 -21 75 Z M15 75 C15 75.33 15 75.66 15 76 C17.97 76.33 20.94 76.66 24 77 C24 76.34 24 75.68 24 75 C21.03 75 18.06 75 15 75 Z " fill="#39231C" transform="translate(60,0)"/>
<path d="M0 0 C4.3830163 0.44641833 6.19486024 3.06082325 9 6.25 C9.98001081 7.35066832 10.96049589 8.45091452 11.94140625 9.55078125 C12.44559082 10.12135254 12.94977539 10.69192383 13.46923828 11.27978516 C15.92047256 14.03439389 18.42986691 16.73431754 20.9375 19.4375 C21.94683248 20.5297466 22.95594589 21.62219568 23.96484375 22.71484375 C24.46612793 23.25737793 24.96741211 23.79991211 25.48388672 24.35888672 C28.48817668 27.61087337 31.49077099 30.86442612 34.49316406 34.11816406 C37.02870536 36.86569053 39.56571571 39.61183463 42.10546875 42.35546875 C48.12208454 48.85830444 54.09556984 55.39479152 60 62 C56.49580461 64.00114899 52.99024543 64.82817469 49.0625 65.6875 C47.85722656 65.95949219 46.65195313 66.23148437 45.41015625 66.51171875 C42.04214359 66.99396569 40.19888785 67.04347905 37 66 C35.38525391 64.09594727 35.38525391 64.09594727 33.9765625 61.56640625 C33.16819946 60.14642334 33.16819946 60.14642334 32.34350586 58.69775391 C31.77639893 57.66312012 31.20929199 56.62848633 30.625 55.5625 C29.38952492 53.37358389 28.15384031 51.18478603 26.91796875 48.99609375 C26.27907715 47.85124512 25.64018555 46.70639648 24.98193359 45.52685547 C23.00084642 41.98663048 20.96957987 38.47696185 18.92578125 34.97265625 C18.25244056 33.81632536 17.57910071 32.65999399 16.90576172 31.50366211 C15.62500843 29.30515742 14.34409255 27.10674745 13.06298828 24.90844727 C3 7.50528364 3 7.50528364 3 4 C-0.67068635 6.44712423 -1.75841527 9.20045276 -3.5625 13.0625 C-6.69197463 19.52761275 -10.08905435 25.73712844 -13.77319336 31.90039062 C-17.96445509 38.91209686 -22.04938691 45.9832409 -26.125 53.0625 C-26.80798452 54.24790691 -27.49100774 55.43329153 -28.17407227 56.61865234 C-29.78336071 59.4120638 -31.3920124 62.20583959 -33 65 C-33.99 65 -34.98 65 -36 65 C-34.62551133 61.36367377 -32.99565142 58.02935879 -31.09375 54.640625 C-30.51947266 53.61525635 -29.94519531 52.5898877 -29.35351562 51.53344727 C-28.74185547 50.44990967 -28.13019531 49.36637207 -27.5 48.25 C-26.55930664 46.57732056 -26.55930664 46.57732056 -25.59960938 44.87084961 C-18.96874283 33.11359174 -12.21157988 21.42929923 -5.05859375 9.98046875 C-3.98976112 7.98084461 -3.51998159 6.19395741 -3 4 C-1.4375 1.75 -1.4375 1.75 0 0 Z M11 14 C12.2330105 18.01844342 13.68935768 21.48737342 15.8359375 25.09765625 C16.40038574 26.05478516 16.96483398 27.01191406 17.54638672 27.99804688 C18.45155029 29.51495117 18.45155029 29.51495117 19.375 31.0625 C20.63626404 33.19871867 21.8966629 35.33544837 23.15625 37.47265625 C24.11337891 39.09324951 24.11337891 39.09324951 25.08984375 40.74658203 C28.06081297 45.80679877 30.97107203 50.90109875 33.875 56 C34.39239746 56.90758057 34.90979492 57.81516113 35.44287109 58.75024414 C36.62955489 60.83294133 37.81494018 62.91637833 39 65 C43.95 64.01 48.9 63.02 54 62 C54.32814462 58.93978086 54.32814462 58.93978086 52.27734375 57.01953125 C51.50519531 56.29121094 50.73304687 55.56289063 49.9375 54.8125 C46.34435638 51.40362015 43.07367861 47.83462845 39.83618164 44.09448242 C36.89067229 40.73462007 33.81954982 37.49622036 30.75 34.25 C25.09061767 28.24723941 19.50085685 22.18974093 13.9765625 16.0625 C13.32429688 15.381875 12.67203125 14.70125 12 14 C11.67 14 11.34 14 11 14 Z " fill="#21201F" transform="translate(60,0)"/>
<path d="M0 0 C0.66 0 1.32 0 2 0 C7.22457227 13.31145146 11.57314815 26.86710822 15.875 40.5 C16.56992999 42.69152758 17.26523993 44.88293472 17.9609375 47.07421875 C19.64500001 52.38143682 21.32394218 57.69024883 23 63 C27.29 62.34 31.58 61.68 36 61 C36 61.99 36 62.98 36 64 C30.06 64.99 30.06 64.99 24 66 C23.67 67.32 23.34 68.64 23 70 C22.34 69.34 21.68 68.68 21 68 C19.08277145 67.97989898 19.08277145 67.97989898 16.9375 68.375 C12.24262316 69.02283203 7.73685609 69.07518819 3 69 C5.76669866 67.15553423 7.23102338 66.55100862 10.375 65.875 C11.12523438 65.70742187 11.87546875 65.53984375 12.6484375 65.3671875 C15.1356683 64.97881591 17.4865795 64.97548646 20 65 C19.80621262 64.40024353 19.61242523 63.80048706 19.4127655 63.18255615 C17.38006402 56.88884729 15.35291759 50.59336808 13.32885742 44.296875 C12.57472112 41.95332586 11.8192123 39.61021789 11.06225586 37.26757812 C9.96879796 33.88268802 8.88043444 30.49619431 7.79296875 27.109375 C7.29122383 25.56174469 7.29122383 25.56174469 6.77934265 23.98284912 C4.56085396 17.05144607 2.68336791 10.08007773 1 3 C0.01 3.33 -0.98 3.66 -2 4 C-1.34 2.68 -0.68 1.36 0 0 Z " fill="#20201F" transform="translate(61,4)"/>
<path d="M0 0 C0 3.49920674 -0.36016467 3.77318501 -2.625 6.25 C-3.58019531 7.301875 -3.58019531 7.301875 -4.5546875 8.375 C-5.36164062 9.24125 -6.16859375 10.1075 -7 11 C-7.5043457 11.54269531 -8.00869141 12.08539063 -8.52832031 12.64453125 C-11.49402362 15.83435624 -14.46748197 19.01680893 -17.4453125 22.1953125 C-21.4151011 26.43697534 -25.34004491 30.71803137 -29.2578125 35.0078125 C-31.24258219 37.17869979 -33.23936721 39.33794311 -35.2421875 41.4921875 C-35.78536621 42.07726074 -36.32854492 42.66233398 -36.88818359 43.26513672 C-37.93382888 44.39060709 -38.98094317 45.51471511 -40.02978516 46.63720703 C-42.53919353 49.34076033 -44.77932905 52.0391054 -47 55 C-42.38 55.99 -37.76 56.98 -33 58 C-33 58.99 -33 59.98 -33 61 C-39.27 59.68 -45.54 58.36 -52 57 C-50.41054709 53.82109419 -49.45655806 52.19290411 -47.12890625 49.75 C-46.56026855 49.14784668 -45.99163086 48.54569336 -45.40576172 47.92529297 C-44.79748535 47.28994629 -44.18920898 46.65459961 -43.5625 46 C-42.28470201 44.64886694 -41.00736327 43.29729942 -39.73046875 41.9453125 C-39.0967334 41.27661133 -38.46299805 40.60791016 -37.81005859 39.91894531 C-35.30406592 37.26220099 -32.83798546 34.57169941 -30.375 31.875 C-29.05242188 30.43060547 -29.05242188 30.43060547 -27.703125 28.95703125 C-26.32440418 27.44999882 -24.94703052 25.94179516 -23.57226562 24.43115234 C-15.94176346 16.04931569 -8.07333196 7.95613843 0 0 Z " fill="#202020" transform="translate(56,6)"/>
<path d="M0 0 C1 3 1 3 -0.59765625 6.38671875 C-1.4084178 7.8264782 -2.23105275 9.25958648 -3.0625 10.6875 C-3.72838135 11.85780762 -3.72838135 11.85780762 -4.40771484 13.05175781 C-5.92564382 15.70878045 -7.46097971 18.35514116 -9 21 C-9.5686377 21.97984863 -10.13727539 22.95969727 -10.72314453 23.96923828 C-13.70628435 29.10527746 -16.70045349 34.23473273 -19.703125 39.359375 C-23.51961027 45.87756461 -27.27498032 52.42915784 -31 59 C-31.99 59 -32.98 59 -34 59 C-32.62551133 55.36367377 -30.99565142 52.02935879 -29.09375 48.640625 C-28.51947266 47.61525635 -27.94519531 46.5898877 -27.35351562 45.53344727 C-26.74185547 44.44990967 -26.13019531 43.36637207 -25.5 42.25 C-24.55930664 40.57732056 -24.55930664 40.57732056 -23.59960938 38.87084961 C-18.84056884 30.43254574 -13.9972612 22.04853751 -9.03125 13.73046875 C-8.05645499 12.09473318 -7.09045156 10.45376764 -6.125 8.8125 C-5.58875 7.905 -5.0525 6.9975 -4.5 6.0625 C-4.0565625 5.31097656 -3.613125 4.55945313 -3.15625 3.78515625 C-2 2 -2 2 0 0 Z " fill="#FB5D06" transform="translate(58,6)"/>
<path d="M0 0 C5.44249562 4.61539966 8.32686574 10.54152706 11.6875 16.75 C12.93086183 19.00990185 14.1756593 21.26901441 15.421875 23.52734375 C16.02966797 24.63190918 16.63746094 25.73647461 17.26367188 26.87451172 C19.58906202 31.06034476 21.99455512 35.19444787 24.4375 39.3125 C25.03316772 40.31953979 25.03316772 40.31953979 25.64086914 41.34692383 C27.1224361 43.84759431 28.60903946 46.34521491 30.09912109 48.84082031 C31.11121011 50.53765297 32.11825665 52.23749028 33.125 53.9375 C33.68445313 54.87464844 34.24390625 55.81179687 34.8203125 56.77734375 C36 59 36 59 36 61 C35.01 61 34.02 61 33 61 C32.44054687 59.9790625 31.88109375 58.958125 31.3046875 57.90625 C25.17171439 46.76605027 18.82414687 35.76039392 12.39453125 24.7890625 C11.8430542 23.84675781 11.29157715 22.90445312 10.72338867 21.93359375 C9.51109042 19.86999043 8.29186858 17.81044658 7.06762695 15.75390625 C6.43945068 14.69300781 5.81127441 13.63210937 5.1640625 12.5390625 C4.30675537 11.09974365 4.30675537 11.09974365 3.43212891 9.63134766 C1.69190489 6.43391595 0.72667515 3.55263405 0 0 Z " fill="#FB4B05" transform="translate(63,4)"/>
<path d="M0 0 C1.8125 0.1875 1.8125 0.1875 4 1 C7 5.17857143 7 5.17857143 7 8 C1.06 8.33 -4.88 8.66 -11 9 C-10.67 10.32 -10.34 11.64 -10 13 C-19.56700056 12.38277416 -28.69247957 10.1798659 -38 8 C-36.1610414 5.97973563 -34.69116769 5.04626378 -31.94287109 4.86230469 C-29.34945685 4.96889058 -26.77392551 5.15684562 -24.1875 5.375 C-15.31653981 5.97695527 -6.84701767 5.88334278 2 5 C1.34 3.35 0.68 1.7 0 0 Z M-23 8 C-23 8.33 -23 8.66 -23 9 C-20.03 9.33 -17.06 9.66 -14 10 C-14 9.34 -14 8.68 -14 8 C-16.97 8 -19.94 8 -23 8 Z " fill="#652417" transform="translate(98,67)"/>
<path d="M0 0 C0.99 0.33 1.98 0.66 3 1 C0.73100315 3.63088407 -0.92053593 4.48630699 -4.30859375 5.16796875 C-5.13810547 5.33876953 -5.96761719 5.50957031 -6.82226562 5.68554688 C-7.68529297 5.85119141 -8.54832031 6.01683594 -9.4375 6.1875 C-10.29666016 6.36474609 -11.15582031 6.54199219 -12.04101562 6.72460938 C-15.82360476 7.48464862 -19.11497047 8 -23 8 C-22.625 6.0625 -22.625 6.0625 -22 4 C-21.34 3.67 -20.68 3.34 -20 3 C-20 3.66 -20 4.32 -20 5 C-18.741875 4.690625 -17.48375 4.38125 -16.1875 4.0625 C-10.82934823 2.85947548 -5.4695168 2.38848904 0 2 C0 1.34 0 0.68 0 0 Z " fill="#202020" transform="translate(59,72)"/>
<path d="M0 0 C1.8125 0.1875 1.8125 0.1875 4 1 C7 5.17857143 7 5.17857143 7 8 C0.73 8 -5.54 8 -12 8 C-12.33 7.34 -12.66 6.68 -13 6 C-8.05 5.67 -3.1 5.34 2 5 C1.34 3.35 0.68 1.7 0 0 Z " fill="#FD2402" transform="translate(98,67)"/>
<path d="M0 0 C0.99 0.33 1.98 0.66 3 1 C2.34 2.32 1.68 3.64 1 5 C5.95 5.33 10.9 5.66 16 6 C15.67 6.66 15.34 7.32 15 8 C8.73 8 2.46 8 -4 8 C-2.68 5.36 -1.36 2.72 0 0 Z " fill="#FC4605" transform="translate(22,67)"/>
<path d="M0 0 C1.32 0.33 2.64 0.66 4 1 C3 4 3 4 -0.0625 5.6875 C-1.031875 6.120625 -2.00125 6.55375 -3 7 C-3 3.48283697 -2.17554415 2.62878252 0 0 Z " fill="#31261E" transform="translate(60,0)"/>
</svg>
